<?xml version="1.0" encoding="utf-8"?>
<!-- Generator: Adobe Illustrator 16.0.0, SVG Export Plug-In . SVG Version: 6.00 Build 0)  -->
<!DOCTYPE svg PUBLIC "-//W3C//DTD SVG 1.1//EN" "http://www.w3.org/Graphics/SVG/1.1/DTD/svg11.dtd">
<svg version="1.1" id="Capa_1" xmlns="http://www.w3.org/2000/svg" xmlns:xlink="http://www.w3.org/1999/xlink" x="0px" y="0px"
	 width="859px" height="452px" viewBox="0 0 859 452" enable-background="new 0 0 859 452" xml:space="preserve">
<radialGradient id="SVGID_1_" cx="823.8975" cy="490.3108" r="837.2587" gradientTransform="matrix(0.8184 0 0 -1.0416 69.4731 400.2239)" gradientUnits="userSpaceOnUse">
	<stop  offset="0.2365" style="stop-color:#5D0004"/>
	<stop  offset="0.6506" style="stop-color:#840005"/>
	<stop  offset="0.8363" style="stop-color:#890006"/>
	<stop  offset="1" style="stop-color:#930009"/>
</radialGradient>
<rect y="1" fill="url(#SVGID_1_)" width="859" height="452"/>
<g opacity="0.2">
	<g>
		<polygon fill="#968156" stroke="#F9CC7D" stroke-miterlimit="10" points="332.138,275.852 409.278,228.02 390.903,226.805 
			324.39,262.899 224.724,205.079 336.026,175.244 390.903,226.805 409.278,228.02 343.142,166.299 372.36,79.319 354.096,91.904 
			330.395,164.249 221.69,193.373 278.166,96.033 354.096,91.904 372.36,79.319 281.455,81.677 235.596,3 234.179,21.379 
			269.019,87.74 211.217,187.437 181.35,76.126 234.179,21.379 235.596,3 170.87,67.991 119.246,51.844 99.104,45.83 89.198,42.877 
			98.669,58.317 115.317,63.437 170.379,81.738 199.494,190.439 102.162,133.973 98.545,70.612 98.669,58.317 89.198,42.877 
			88.02,51.4 86.268,71.601 86.14,131.981 12.105,174.488 28.138,178.589 93.871,143.118 193.578,200.947 82.238,230.775 
			28.138,178.589 12.105,174.488 73.499,239.429 48.372,326.919 64.056,314.674 87.9,241.74 196.571,212.615 140.129,309.956 
			64.056,314.674 48.372,326.919 137.114,323.816 185.208,400.28 185.103,383.216 149.239,318.274 207.085,218.582 236.899,329.895 
			185.103,383.216 185.208,400.28 246.668,338.62 331.907,364.654 319.902,348.02 247.858,324.22 218.708,215.546 316.062,271.995 
			319.902,348.02 331.907,364.654 		"/>
	</g>
</g>
<g opacity="0.2">
	<g>
		<path fill="#B39A60" d="M838.972,368.664c0.188,1.329,1.412,2.245,2.748,2.069c1.329-0.178,2.243-1.409,2.063-2.743l-3.467-24.738
			l19.685,8.319v-5.274l-18.619-7.867L860,326.01v-5.334c-0.465,0-0.943,0.129-1.363,0.41l-22.634,15.078l-41.739-17.646
			l42.026-16.957l22.378,15.447c0.409,0.271,0.872,0.404,1.332,0.414v-5.417l-18.304-12.621L860,291.998v-5.232l-19.284,7.786
			l3.866-24.688c0.211-1.328-0.688-2.571-2.008-2.778c-0.121-0.035-0.242-0.035-0.363-0.035c-1.18-0.01-2.242,0.858-2.425,2.066
			l-4.334,27.55l-43.025,17.351l18.06-42.74l27.609-3.883c1.345-0.183,2.266-1.417,2.077-2.748
			c-0.183-1.321-1.442-2.285-2.751-2.053l-24.738,3.46l11.229-26.538l18.925-2.881c1.329-0.199,2.242-1.445,2.046-2.763
			c-0.202-1.329-1.402-2.202-2.778-2.046l-15.973,2.423l5.823-13.781l11.667-2.91c1.306-0.315,2.084-1.646,1.783-2.948
			c-0.34-1.291-1.647-2.098-2.97-1.768l-10.603,2.646l-3.135-7.094c-0.401-0.895-1.268-1.431-2.205-1.439
			c-0.332-0.002-0.664,0.073-0.996,0.221c-1.231,0.534-1.79,1.977-1.239,3.197l3.431,7.718l-5.779,13.675l-6.372-11.511
			c-0.446-0.788-1.256-1.244-2.114-1.253c-0.395-0.005-0.803,0.1-1.201,0.306c-1.162,0.644-1.588,2.133-0.931,3.315l8.217,14.833
			l-11.644,27.54l-13.3-19.959c-0.446-0.688-1.219-1.082-1.986-1.087c-0.484-0.006-0.952,0.128-1.374,0.412
			c-1.125,0.749-1.42,2.255-0.682,3.374l15.074,22.608L787.954,312.1l-16.959-42.041l15.45-22.355
			c0.771-1.11,0.475-2.617-0.619-3.39c-0.423-0.29-0.891-0.428-1.36-0.432c-0.784-0.01-1.54,0.372-2.03,1.056l-13.615,19.734
			l-11.177-27.727l8.473-14.694c0.658-1.172,0.264-2.672-0.892-3.33c-0.393-0.216-0.801-0.325-1.209-0.33
			c-0.845-0.007-1.683,0.441-2.121,1.225l-6.563,11.403l-5.551-13.772l3.548-7.655c0.574-1.212,0.038-2.667-1.177-3.224
			c-0.332-0.149-0.665-0.228-1.013-0.232c-0.923-0.009-1.799,0.513-2.214,1.399l-3.276,7.044l-10.535-2.821
			c-1.313-0.352-2.634,0.434-2.99,1.721c-0.339,1.295,0.43,2.639,1.73,2.976l11.606,3.101l5.61,13.874l-15.936-2.683
			c-1.345-0.176-2.584,0.675-2.81,1.998c-0.219,1.314,0.672,2.575,2.001,2.799l18.872,3.191l10.794,26.719l-24.696-3.868
			c-1.314-0.267-2.575,0.688-2.778,2.011c-0.212,1.326,0.688,2.57,2.03,2.779l27.56,4.333l17.359,43.031l-42.759-18.051
			l-3.881-27.62c-0.176-1.211-1.21-2.094-2.373-2.106c-0.121,0-0.242,0-0.361,0.032c-1.313,0.184-2.266,1.414-2.062,2.743
			l3.45,24.749l-26.538-11.229l-2.876-18.918c-0.19-1.221-1.208-2.071-2.371-2.086c-0.138,0-0.259,0.017-0.396,0.038
			c-1.313,0.193-2.216,1.438-2.03,2.768l2.405,15.988l-13.771-5.846l-2.912-11.663c-0.264-1.092-1.253-1.842-2.34-1.846
			c-0.197,0-0.396,0.023-0.605,0.071c-1.303,0.337-2.098,1.656-1.764,2.941l2.632,10.613l-7.094,3.156
			c-1.212,0.537-1.768,1.979-1.217,3.202c0.534,1.227,1.979,1.768,3.206,1.232l7.716-3.442l13.667,5.793l-11.5,6.363
			c-1.171,0.654-1.604,2.131-0.95,3.299c0.639,1.187,2.132,1.612,3.318,0.948l14.822-8.206l27.548,11.639l-19.962,13.285
			c-1.125,0.756-1.405,2.253-0.672,3.38c0.74,1.107,2.235,1.406,3.377,0.675l22.595-15.078l41.755,17.646l-42.033,16.96
			l-22.354-15.449c-0.415-0.29-0.887-0.431-1.367-0.434c-0.771-0.009-1.54,0.366-2.019,1.058c-0.747,1.089-0.491,2.604,0.62,3.362
			l19.733,13.638l-27.731,11.168l-14.688-8.448c-0.391-0.216-0.799-0.328-1.206-0.33c-0.846-0.002-1.663,0.443-2.124,1.218
			c-0.674,1.177-0.262,2.66,0.896,3.329l11.396,6.559l-13.762,5.544l-7.66-3.554c-0.33-0.146-0.662-0.223-1.01-0.226
			c-0.923-0.01-1.801,0.503-2.217,1.391c-0.571,1.244-0.038,2.675,1.166,3.242l7.044,3.261l-2.806,10.566
			c-0.36,1.303,0.413,2.632,1.709,2.969c1.301,0.339,2.632-0.435,2.976-1.716l3.104-11.625l13.865-5.596l-2.671,15.94
			c-0.206,1.329,0.675,2.589,1.986,2.806c1.359,0.196,2.572-0.666,2.796-1.993l3.189-18.88l26.719-10.784l-3.858,24.681
			c-0.22,1.328,0.701,2.574,2.018,2.773c1.298,0.199,2.561-0.697,2.765-2.021l4.333-27.554l43.056-17.375l-18.063,42.765
			l-27.625,3.873c-1.353,0.186-2.267,1.424-2.077,2.748c0.182,1.324,1.441,2.271,2.741,2.064l24.756-3.476l-11.229,26.554
			l-18.917,2.861c-1.329,0.214-2.252,1.438-2.048,2.771c0.203,1.339,1.436,2.265,2.777,2.046l15.976-2.426l-5.849,13.779
			l-11.651,2.914c-1.3,0.332-2.092,1.628-1.773,2.942c0.34,1.306,1.646,2.104,2.96,1.785l10.58-2.653l3.156,7.087
			c0.553,1.22,1.985,1.779,3.211,1.229c1.23-0.545,1.782-1.979,1.239-3.203l-3.431-7.72l5.776-13.67l6.368,11.512
			c0.657,1.163,2.151,1.581,3.314,0.954c1.17-0.66,1.594-2.142,0.951-3.305l-8.231-14.866l11.631-27.521l13.291,19.954
			c0.747,1.104,2.259,1.399,3.384,0.675c1.111-0.75,1.42-2.255,0.672-3.38l-15.082-22.617l17.65-41.739l16.954,42.023
			l-15.445,22.366c-0.762,1.109-0.481,2.625,0.627,3.387c1.097,0.735,2.604,0.477,3.37-0.612l13.622-19.738l11.191,27.716
			l-8.458,14.724c-0.679,1.158-0.279,2.641,0.876,3.318c1.17,0.649,2.66,0.256,3.332-0.897l6.563-11.4l5.551,13.766l-3.558,7.656
			c-0.567,1.215-0.038,2.657,1.187,3.223c1.215,0.564,2.658,0.038,3.224-1.187l3.249-7.021l10.563,2.814
			c1.308,0.347,2.63-0.428,2.993-1.719c0.322-1.314-0.439-2.63-1.73-2.977l-11.622-3.113l-5.596-13.874l15.927,2.695
			c1.374,0.237,2.59-0.669,2.817-2.003c0.218-1.329-0.682-2.567-2.003-2.805l-18.873-3.177l-10.791-26.731l24.68,3.878
			c1.284,0.209,2.575-0.693,2.779-2.019c0.211-1.313-0.686-2.569-2.031-2.775l-27.542-4.329l-17.355-43.054l42.737,18.076
			L838.972,368.664z"/>
	</g>
</g>
<g>
	<g>
		<path fill="#B39A60" d="M101.43,232.016c0.05-0.022,4.683-1.425,12.877,1.836c0.52,0.206,1.1-0.048,1.306-0.567
			c0.204-0.511-0.047-1.098-0.563-1.304c-4.487-1.782-7.996-2.263-10.415-2.304c1.724-1.707,3.752-4.538,4.948-8.988
			c0.142-0.542-0.179-1.091-0.709-1.234c-0.086-0.022-0.172-0.033-0.256-0.033c-0.444-0.004-0.858,0.292-0.981,0.74
			c-2.06,7.691-6.731,9.89-6.919,9.976c-0.018,0.006-0.018,0.025-0.032,0.03l-6.602,2.467c2.616-2.771,5.563-7.124,7.358-13.814
			c0.141-0.539-0.174-1.092-0.718-1.232c-0.083-0.025-0.166-0.035-0.248-0.037c-0.449-0.001-0.858,0.292-0.981,0.752
			c-3.383,12.634-11.237,16.471-11.586,16.632c-0.022,0.005-0.049,0.022-0.049,0.022l-3.918,1.491
			c-0.393-0.846-0.948-1.698-1.63-2.429c-0.677-0.643-1.478-1.215-2.318-1.623l1.521-3.848c0-0.009,0.009-0.009,0.013-0.017
			c0.039-0.08,3.945-8.131,16.855-11.359c0.541-0.141,0.872-0.687,0.734-1.227c-0.134-0.536-0.68-0.869-1.217-0.734
			c-6.709,1.684-11.11,4.556-13.921,7.126l2.587-6.576l0.005-0.007c0.017-0.045,2.296-4.806,10.083-6.756
			c0.538-0.136,0.866-0.685,0.725-1.222c-0.129-0.534-0.662-0.864-1.216-0.729c-4.469,1.122-7.33,3.105-9.074,4.798
			c0.011-2.417-0.419-5.94-2.126-10.451c-0.153-0.396-0.531-0.644-0.934-0.646c-0.119,0-0.243,0.016-0.362,0.061
			c-0.52,0.198-0.784,0.779-0.588,1.299c3.124,8.245,1.643,12.852,1.635,12.893c-0.01,0.007,0,0.007,0,0.011
			c-0.01,0.014,0,0.026-0.034,0.053l-2.379,6.049c-0.135-3.787-0.939-8.981-3.409-15.497c-0.143-0.4-0.526-0.649-0.929-0.655
			c-0.119,0-0.243,0.022-0.367,0.072c-0.519,0.19-0.775,0.771-0.578,1.298c4.491,11.846,3.222,19.161,2.776,20.982l-0.036,0.092
			c-0.001,0.081-0.001,0.118-0.043,0.161c-0.001,0.123-0.043,0.2-0.043,0.2l-1.562,3.968c-0.763-0.205-1.527-0.292-2.328-0.299
			l-0.201-0.003c-0.765-0.008-1.489,0.071-2.21,0.225l-1.498-3.954c0,0,0.002-0.077-0.039-0.201
			c-0.037-0.044-0.037-0.08-0.036-0.163l-0.068-0.164c-0.423-1.911-1.5-9.199,3.14-20.863c0.206-0.521-0.05-1.108-0.567-1.306
			c-0.118-0.048-0.242-0.077-0.361-0.077c-0.403-0.003-0.785,0.24-0.943,0.637c-2.563,6.459-3.453,11.629-3.657,15.41l-2.305-6.085
			c-0.004-0.012,0-0.021,0-0.03c0,0-0.016-0.078-0.035-0.119c-0.004-0.036-0.01-0.026-0.008-0.065l-0.01-0.033
			c-0.231-0.984-0.986-5.428,1.89-12.654c0.205-0.516-0.046-1.102-0.563-1.305c-0.122-0.049-0.241-0.067-0.365-0.069
			c-0.398-0.002-0.785,0.235-0.944,0.631c-1.781,4.481-2.263,7.996-2.303,10.415c-1.706-1.721-4.538-3.753-8.994-4.949
			c-0.548-0.143-1.087,0.179-1.229,0.71c-0.145,0.536,0.175,1.093,0.715,1.237c6.707,1.794,9.231,5.574,9.823,6.641v0.003
			c0.017,0.027,0.009,0.02,0.032,0.047c0.059,0.115,0.104,0.206,0.107,0.227c0.008,0.009,0.023,0.011,0.027,0.023l2.433,6.558
			l0.01,0.027c-2.764-2.61-7.118-5.543-13.779-7.336c-0.548-0.144-1.087,0.178-1.233,0.713c-0.142,0.538,0.173,1.087,0.709,1.239
			c12.492,3.34,16.367,11.029,16.62,11.548c0.013,0.059,0.036,0.104,0.036,0.104s0,0.043,0.042,0.043l1.456,3.83
			c-0.851,0.394-1.697,0.952-2.426,1.628c-0.647,0.717-1.216,1.476-1.626,2.321l-3.848-1.518c0,0-0.046-0.019-0.086-0.033
			c-0.447-0.229-8.14-4.217-11.297-16.813c-0.111-0.458-0.52-0.762-0.964-0.766c-0.082,0-0.166,0.009-0.249,0.034
			c-0.54,0.131-0.867,0.681-0.734,1.218c1.677,6.696,4.544,11.098,7.108,13.905l-0.033-0.012l-6.518-2.544
			c-0.01-0.005-0.01-0.016-0.018-0.021c-0.046-0.024-4.807-2.297-6.759-10.088c-0.115-0.45-0.52-0.752-0.969-0.757
			c-0.077,0-0.165,0.009-0.248,0.029c-0.54,0.136-0.871,0.679-0.734,1.224c1.119,4.468,3.1,7.331,4.799,9.069
			c-2.414-0.002-5.938,0.423-10.45,2.132c-0.52,0.197-0.78,0.779-0.583,1.294c0.187,0.522,0.768,0.781,1.295,0.589
			c8.255-3.131,12.855-1.649,12.891-1.633c0.015,0.007,0.019,0,0.023,0l6.053,2.406c-3.783,0.143-8.97,0.95-15.457,3.409
			c-0.52,0.198-0.781,0.776-0.583,1.296c0.197,0.518,0.776,0.783,1.295,0.584c11.729-4.439,18.99-3.24,20.906-2.794l0.168,0.069
			c0.237,0.044,0.361,0.085,0.361,0.085l3.926,1.555c-0.167,0.724-0.251,1.447-0.257,2.212l-0.002,0.324
			c-0.008,0.758,0.064,1.488,0.219,2.208l-3.951,1.497c0,0-0.082,0.042-0.201,0.038c-0.042,0.043-0.083,0.043-0.161,0.043
			l-0.082,0.032c-1.818,0.411-9.159,1.57-20.945-3.119c-0.119-0.047-0.241-0.073-0.36-0.075c-0.407-0.003-0.789,0.235-0.943,0.639
			c-0.207,0.508,0.045,1.094,0.562,1.301c6.463,2.575,11.64,3.471,15.421,3.664l-6.073,2.308c-0.023,0-0.038-0.012-0.051-0.008
			c-0.05,0.019-4.682,1.421-12.876-1.836c-0.119-0.046-0.243-0.067-0.366-0.067c-0.404-0.006-0.784,0.234-0.939,0.631
			c-0.206,0.518,0.047,1.102,0.561,1.303c4.484,1.786,8,2.271,10.414,2.304c-1.727,1.717-3.756,4.542-4.946,8.993
			c-0.145,0.537,0.175,1.092,0.714,1.238c0.543,0.143,1.086-0.18,1.229-0.717c1.775-6.63,5.479-9.164,6.591-9.792l0.054-0.021
			c0.163-0.123,0.281-0.156,0.281-0.156l6.574-2.444l0.014-0.005c-2.61,2.769-5.536,7.116-7.316,13.768
			c-0.143,0.537,0.173,1.086,0.714,1.23c0.537,0.138,1.082-0.176,1.224-0.715c3.449-12.854,11.566-16.628,11.646-16.664
			c0.004-0.005,0.009-0.01,0.014-0.016l3.873-1.449c0.396,0.845,0.953,1.655,1.629,2.385c0.718,0.687,1.514,1.214,2.359,1.618
			l-1.396,3.653c-0.083,0.081-0.125,0.16-0.167,0.242c0,0-0.006,0.037-0.019,0.058c-0.183,0.38-4.16,8.132-16.826,11.304
			c-0.537,0.134-0.862,0.685-0.729,1.218c0.138,0.538,0.67,0.87,1.222,0.732c6.713-1.68,11.12-4.559,13.925-7.127l-2.568,6.551
			c-0.005,0.016-0.022,0.024-0.037,0.042c-0.015,0.047-2.288,4.805-10.075,6.759c-0.542,0.133-0.873,0.678-0.734,1.218
			c0.133,0.537,0.666,0.861,1.216,0.73c4.473-1.124,7.338-3.1,9.075-4.802c-0.001,1.805,0.235,4.22,1.062,7.197h2.101
			c-1.959-6.641-0.787-10.32-0.774-10.355c0,0-0.004-0.004,0.001-0.012l2.403-6.053c0.143,3.781,0.952,8.961,3.404,15.452
			c0.196,0.518,0.781,0.784,1.295,0.586c0.52-0.198,0.786-0.78,0.588-1.298c-4.473-11.813-3.227-19.111-2.785-20.962l0.059-0.14
			c0.039-0.242,0.081-0.361,0.081-0.361l1.563-3.929c0.717,0.21,1.44,0.29,2.205,0.296l0.32,0.004
			c0.765,0.007,1.489-0.064,2.214-0.262l1.497,3.947c0,0.008-0.005,0.013,0,0.019c0,0,0.021,0.071,0.021,0.088
			c0.013,0.052,0.027,0.089,0.058,0.265l0.031,0.078c0.401,1.762,1.592,9.131-3.117,20.975c-0.204,0.513,0.042,1.1,0.557,1.308
			c0.515,0.205,1.104-0.051,1.305-0.563c2.576-6.469,3.467-11.645,3.663-15.426l2.313,6.093c0,0.014-0.014,0.023-0.008,0.036
			c0.016,0.039,1.112,3.687-0.901,10.211h2.103c0.838-2.885,1.109-5.243,1.13-7.013c1.718,1.729,4.545,3.754,8.996,4.952
			c0.553,0.141,1.091-0.175,1.228-0.712c0.151-0.539-0.168-1.09-0.704-1.231c-7.69-2.061-9.887-6.732-9.973-6.923
			c0-0.011-0.008-0.011-0.008-0.016l-2.459-6.597c2.768,2.612,7.116,5.548,13.788,7.335c0.534,0.146,1.087-0.177,1.228-0.713
			c0.146-0.532-0.175-1.088-0.713-1.229c-12.853-3.444-16.628-11.561-16.665-11.644c-0.004-0.012-0.019-0.016-0.023-0.032
			l-1.447-3.881c0.846-0.393,1.657-0.945,2.386-1.624c0.651-0.675,1.221-1.476,1.627-2.316l3.866,1.511
			c0.009,0.002,0.009,0.014,0.027,0.018c0.077,0.037,8.128,3.944,11.36,16.854c0.133,0.54,0.68,0.863,1.216,0.732
			c0.547-0.136,0.872-0.678,0.738-1.215c-1.679-6.711-4.553-11.109-7.122-13.917h0.011l6.569,2.58l0.004,0.008
			c0,0,0.056,0.029,0.082,0.046c0.032,0.015,0.047,0.018,0.122,0.067l0.043,0.021c0.997,0.574,4.809,3.172,6.507,9.946
			c0.138,0.539,0.661,0.87,1.226,0.735c0.532-0.136,0.862-0.688,0.727-1.226c-1.12-4.469-3.103-7.329-4.797-9.073
			c2.417,0.009,5.935-0.419,10.451-2.13c0.518-0.195,0.78-0.776,0.583-1.294c-0.152-0.4-0.531-0.646-0.934-0.649
			c-0.119,0-0.242,0.018-0.361,0.063c-8.261,3.125-12.854,1.644-12.896,1.625c-0.018-0.004-0.033,0.007-0.051,0.006l-6.034-2.404
			c3.779-0.136,8.965-0.951,15.469-3.413c0.515-0.198,0.781-0.78,0.584-1.293c-0.152-0.403-0.531-0.65-0.93-0.653
			c-0.124,0-0.248,0.024-0.367,0.072c-11.95,4.518-19.302,3.196-21.047,2.767l-0.055-0.028c-0.081,0-0.124,0-0.164-0.044
			c-0.064,0-0.069-0.01-0.106-0.021c-0.009-0.007-0.082-0.021-0.082-0.021c-0.004-0.007-0.01,0-0.023,0l-3.916-1.562
			c0.207-0.719,0.292-1.444,0.297-2.205l0.002-0.324c0.008-0.765-0.065-1.49-0.261-2.214l3.956-1.49c0,0,0.121-0.041,0.362-0.08
			l0.147-0.054c1.863-0.42,9.181-1.537,20.907,3.127c0.513,0.21,1.102-0.048,1.306-0.565c0.205-0.516-0.05-1.1-0.562-1.306
			c-6.445-2.564-11.608-3.456-15.388-3.661l6.086-2.3C101.427,232.009,101.43,232.016,101.43,232.016z M82.861,240.866
			c-0.003,0.48-0.049,1.002-0.172,1.488c-0.124,0.639-0.373,1.277-0.698,1.88c-0.289,0.601-0.696,1.163-1.146,1.644
			c-0.525,0.477-1.087,0.869-1.694,1.15c-0.607,0.319-1.255,0.554-1.896,0.666c-0.481,0.12-1.004,0.15-1.489,0.146l-0.322-0.002
			c-0.485-0.005-1.008-0.045-1.488-0.17c-0.635-0.125-1.278-0.369-1.88-0.697c-0.603-0.289-1.158-0.691-1.641-1.142
			c-0.476-0.526-0.874-1.09-1.153-1.699c-0.353-0.608-0.548-1.249-0.666-1.893c-0.116-0.485-0.153-1.006-0.148-1.488l0.002-0.325
			c0.004-0.484,0.049-1.005,0.137-1.488c0.165-0.637,0.372-1.28,0.733-1.877c0.29-0.604,0.657-1.164,1.145-1.645
			c0.526-0.475,1.087-0.875,1.695-1.147c0.607-0.356,1.255-0.554,1.892-0.673c0.481-0.115,1.003-0.151,1.489-0.146l0.322,0.003
			c0.484,0.005,1.006,0.05,1.486,0.171c0.64,0.13,1.285,0.337,1.885,0.702c0.604,0.285,1.158,0.651,1.641,1.134
			c0.476,0.531,0.874,1.097,1.153,1.704c0.315,0.604,0.553,1.25,0.666,1.891c0.116,0.482,0.152,1.002,0.149,1.489L82.861,240.866z"
			/>
	</g>
</g>
<g>
	<g>
		<path fill="#B39A60" d="M623.886,91.215l23.739-13.499h0.01l10.076,4.154l-11.557,7.567c-1.554,1.016-1.979,3.079-0.967,4.629
			c1.006,1.528,3.053,1.967,4.615,0.951l15.372-10.063l0.021,0.01l25.188,10.447c-0.271,1.16-0.375,2.312-0.388,3.479
			c-0.008,1.149,0.08,2.295,0.329,3.466l-25.354,10.017l-0.021,0.017l-15.203-10.313c-0.56-0.385-1.203-0.572-1.842-0.579
			c-1.079-0.011-2.145,0.509-2.789,1.465c-1.037,1.528-0.646,3.597,0.892,4.634l11.434,7.763l-10.147,3.986h-0.011l-23.515-13.888
			c-0.517-0.308-1.098-0.46-1.669-0.465c-1.136-0.011-2.274,0.573-2.888,1.644c-0.954,1.592-0.42,3.634,1.161,4.564l19.084,11.272
			l-0.021,0.01l-7.231,2.874c-1.777,0.621-2.593,2.556-1.903,4.343c0.706,1.708,2.657,2.518,4.349,1.82l8.184-3.215l-5.615,21.98
			c-0.444,1.789,0.619,3.608,2.398,4.057c1.768,0.448,3.614-0.626,4.071-2.404l6.809-26.711l8.423-3.285l-2.24,11.078
			c-0.374,1.811,0.802,3.556,2.604,3.934c1.77,0.355,3.561-0.806,3.943-2.609l3.107-15.38h0.011l26.502-10.452
			c0.63,1.069,1.421,2.058,2.288,2.956c0.889,0.879,1.866,1.696,2.931,2.333l-10.901,26.339v0.006l-15.408,2.862
			c-1.807,0.329-3.012,2.063-2.679,3.889c0.339,1.805,2.125,3.042,3.889,2.668l11.112-2.052l-3.428,8.357l-26.814,6.385
			c-1.785,0.421-2.895,2.22-2.475,4.02c0.426,1.788,2.201,2.862,4.008,2.475l22.062-5.246l-3.338,8.103
			c-0.72,1.696,0.054,3.658,1.743,4.393c1.777,0.72,3.655-0.07,4.382-1.837l2.987-7.18l0.011-0.026l10.958,19.269
			c0.918,1.604,2.955,2.184,4.551,1.252c1.604-0.918,2.162-2.942,1.248-4.542l-13.494-23.752v-0.01l4.153-10.068l7.566,11.564
			c1.015,1.528,3.085,1.972,4.626,0.967c1.545-1.02,1.973-3.095,0.968-4.624l-10.062-15.368l0.01-0.026l10.537-25.356
			c2.224,0.46,4.522,0.48,6.753,0.054l10.107,25.53l0.013,0.027l-10.315,15.199c-1.025,1.513-0.623,3.593,0.892,4.642
			c1.537,1.024,3.595,0.621,4.633-0.893l7.765-11.44l3.993,10.134l0.01,0.01l-13.906,23.525c-0.941,1.589-0.406,3.624,1.186,4.563
			c1.581,0.946,3.637,0.406,4.557-1.178l11.289-19.084v0.027l2.879,7.227c0.706,1.777,2.656,2.6,4.337,1.908
			c1.701-0.703,2.519-2.653,1.814-4.359L737.087,164l21.958,5.606c1.782,0.416,3.614-0.626,4.063-2.41
			c0.458-1.793-0.616-3.606-2.41-4.056l-26.706-6.828l-3.29-8.411l11.08,2.235c1.766,0.369,3.568-0.805,3.942-2.609
			c0.361-1.814-0.815-3.569-2.613-3.932l-15.38-3.112v-0.005l-10.447-26.512c1.063-0.626,2.053-1.421,2.947-2.29
			c0.9-0.881,1.709-1.854,2.346-2.913l26.335,10.885h0.012l2.846,15.422c0.342,1.816,2.146,3.042,3.891,2.676
			c1.813-0.348,3.019-2.069,2.679-3.892l-2.058-11.109l8.368,3.424l6.366,26.819c0.438,1.784,2.232,2.892,4.021,2.471
			c1.81-0.416,2.901-2.221,2.474-4.016l-5.237-22.07l8.116,3.349c1.682,0.718,3.643-0.06,4.376-1.75
			c0.72-1.777-0.075-3.728-1.831-4.37l-7.18-2.993l-0.031-0.01l19.265-10.961c1.608-0.908,2.176-2.938,1.258-4.542
			c-0.616-1.082-1.724-1.686-2.869-1.696c-0.572,0-1.145,0.14-1.679,0.443l-23.752,13.499h-0.014l-10.063-4.161l11.564-7.568
			c1.534-1.015,1.974-3.071,0.969-4.624c-0.64-0.966-1.691-1.495-2.772-1.506c-0.637-0.006-1.28,0.172-1.853,0.545l-15.374,10.063
			l-0.021-0.016l-25.184-10.432c0.28-1.167,0.377-2.312,0.384-3.463c0.011-1.166-0.066-2.317-0.324-3.483l25.351-10.03l0.021-0.013
			l15.201,10.313c1.528,1.042,3.603,0.644,4.645-0.876c1.027-1.528,0.621-3.603-0.891-4.639l-11.442-7.757l10.136-3.986h0.012
			l23.524,13.888c1.588,0.935,3.625,0.396,4.569-1.177c0.938-1.594,0.404-3.642-1.184-4.569l-19.085-11.286h0.031l7.229-2.874
			c1.767-0.615,2.592-2.564,1.906-4.342c-0.53-1.259-1.767-2.069-3.105-2.08c-0.355,0-0.799,0.08-1.247,0.258l-8.174,3.216
			l5.606-21.979c0.46-1.79-0.611-3.609-2.408-4.058c-0.271-0.076-0.54-0.098-0.8-0.104c-1.503-0.01-2.869,0.995-3.264,2.507
			l-6.808,26.719l-8.42,3.282l2.236-11.072c0.37-1.811-0.801-3.575-2.614-3.932c-0.206-0.055-0.416-0.07-0.621-0.07
			c-1.577-0.017-2.983,1.073-3.313,2.673l-3.095,15.375h-0.012l-26.51,10.457c-0.619-1.074-1.41-2.053-2.3-2.96
			c-0.877-0.892-1.854-1.711-2.908-2.333l10.88-26.329v-0.033l15.432-2.841c1.805-0.334,3.01-2.063,2.682-3.89
			c-0.347-1.81-2.098-3.02-3.9-2.668l-11.117,2.048l3.431-8.362l26.814-6.375c1.799-0.421,2.901-2.227,2.473-4.019
			c-0.415-1.799-2.218-2.905-4.018-2.475l-22.051,5.24l3.327-8.103c0.729-1.69-0.054-3.651-1.744-4.387
			c-1.668-0.718-3.631,0.06-4.371,1.837l-2.998,7.179v0.022l-10.971-19.269c-0.604-1.07-1.711-1.67-2.867-1.682
			c-0.563-0.005-1.139,0.125-1.671,0.434c-1.605,0.907-2.173,2.938-1.259,4.543l13.518,23.747l-0.013,0.01l-4.153,10.075
			l-7.578-11.565c-0.626-0.962-1.683-1.502-2.764-1.513c-0.638-0.005-1.274,0.179-1.853,0.557c-1.53,1.003-1.97,3.063-0.968,4.607
			L721.85,56.41l-0.01,0.026L711.4,81.621c-1.153-0.28-2.311-0.377-3.466-0.39c-1.146-0.005-2.313,0.071-3.46,0.329l-10.033-25.344
			l-0.011-0.027l10.313-15.211c1.026-1.522,0.632-3.592-0.892-4.619c-0.569-0.389-1.206-0.583-1.846-0.589
			c-1.079-0.01-2.141,0.521-2.798,1.471l-7.754,11.435l-3.989-10.138v-0.013l13.879-23.52c0.944-1.592,0.423-3.635-1.171-4.565
			c-0.517-0.316-1.097-0.458-1.669-0.463c-1.146-0.005-2.263,0.577-2.896,1.637l-11.277,19.083l-0.008-0.02l-2.871-7.229
			c-0.527-1.345-1.764-2.145-3.006-2.156c-0.443-0.005-0.888,0.082-1.343,0.25c-1.701,0.701-2.507,2.651-1.818,4.353l3.207,8.157
			l-21.973-5.595c-1.803-0.465-3.592,0.608-4.049,2.403c-0.447,1.788,0.628,3.607,2.405,4.058l26.708,6.815l3.29,8.417l-11.077-2.23
			c-1.78-0.383-3.571,0.794-3.933,2.604c-0.362,1.825,0.813,3.57,2.614,3.933l15.359,3.102v0.032l10.466,26.5
			c-1.073,0.605-2.063,1.406-2.969,2.287c-0.883,0.891-1.688,1.856-2.336,2.921l-26.326-10.896h-0.01l-2.855-15.422
			c-0.301-1.599-1.694-2.718-3.252-2.728c-0.206,0-0.422,0.01-0.647,0.06c-1.808,0.329-3.009,2.074-2.669,3.89l2.06,11.111
			l-8.366-3.426l-6.37-26.819c-0.364-1.523-1.729-2.55-3.219-2.562c-0.26-0.005-0.529,0.017-0.812,0.086
			c-1.788,0.423-2.883,2.22-2.464,4.02l5.251,22.067l-8.13-3.344c-0.451-0.188-0.884-0.28-1.239-0.28
			c-1.339-0.012-2.6,0.777-3.14,2.025c-0.716,1.767,0.068,3.728,1.833,4.376l7.184,2.991h0.021l-19.27,10.966
			c-1.597,0.907-2.162,2.942-1.237,4.555C620.239,91.566,622.288,92.139,623.886,91.215z M699.398,91.928
			c0.088-0.27,0.36-0.535,0.623-0.794c0.272-0.271,0.543-0.53,0.815-0.611c1.709-1.582,4.026-2.371,6.242-2.44
			c0.529-0.093,1.057-0.086,1.599,0.01c2.227,0.108,4.519,0.936,6.211,2.544c0.261,0.087,0.521,0.352,0.798,0.626
			c0.268,0.265,0.523,0.535,0.618,0.805c1.586,1.703,2.366,3.853,2.522,6.164c0.083,0.266,0.082,0.621,0.078,0.898
			c-0.003,0.253-0.005,0.614-0.096,0.874c-0.191,2.316-1.01,4.446-2.623,6.12c-0.097,0.27-0.357,0.535-0.631,0.8
			c-0.284,0.27-0.545,0.529-0.805,0.611c-1.72,1.594-3.854,2.382-6.159,2.532l-1.782-0.01c-2.309-0.195-4.433-1.015-6.113-2.642
			c-0.268-0.082-0.539-0.347-0.806-0.622c-0.257-0.266-0.524-0.54-0.607-0.811c-1.585-1.696-2.38-3.841-2.544-6.164
			c-0.073-0.26-0.07-0.622-0.068-0.876c0.004-0.274,0.007-0.632,0.085-0.896C696.959,95.741,697.785,93.607,699.398,91.928z"/>
	</g>
</g>
<g opacity="0.5">
	<g>
		<polygon fill="#0E9103" points="74.414,119.118 45.463,200.514 77.688,180.662 99.658,199.905 103.733,112.055 		"/>
		<polygon fill="#0E9103" points="126.812,95.075 207.397,126.21 171.333,137.692 171.591,166.897 102.336,112.697 		"/>
		<g>
			<g>
				<path fill="#0E9103" stroke="#000000" stroke-width="0.5" stroke-miterlimit="10" d="M19.266,70.937
					c0,0,5.701-12.914,78.819,30.603l1.085,5.261C99.17,106.8,14.747,92.941,19.266,70.937z"/>
				<path fill="#0E9103" stroke="#000000" stroke-width="0.5" stroke-miterlimit="10" d="M104.684,106.268
					c0,0-92.867-30.086-84.904-35.899c-10.61,7.526-15.089,69.697,7.002,67.142c24.375-2.819,76.31-23.647,76.31-23.647
					L104.684,106.268z"/>
				<path fill="#0E9103" stroke="#000000" stroke-width="0.5" stroke-miterlimit="10" d="M104.684,106.268
					c-7.491-2.29-14.946-4.692-22.367-7.199c-7.426-2.498-14.808-5.123-22.167-7.806c-7.336-2.752-14.658-5.551-21.859-8.65
					c-3.593-1.564-7.17-3.176-10.659-4.971c-1.736-0.913-3.456-1.868-5.09-2.956c-0.811-0.553-1.614-1.128-2.314-1.823
					c-0.341-0.352-0.679-0.732-0.858-1.198c-0.224-0.464-0.016-1.037,0.41-1.295c-0.42,0.277-0.593,0.835-0.365,1.278
					c0.19,0.446,0.534,0.809,0.881,1.145c0.715,0.662,1.53,1.208,2.354,1.728c1.661,1.026,3.402,1.918,5.16,2.771
					c3.511,1.716,7.106,3.262,10.721,4.752c7.237,2.975,14.548,5.777,21.899,8.466c7.329,2.744,14.71,5.356,22.087,7.978
					L104.684,106.268z"/>
				<path fill="#0E9103" stroke="#000000" stroke-width="0.5" stroke-miterlimit="10" d="M129.851,20.194
					c0,0-13.508-4.1-28.201,79.709l3.28,4.253C104.93,104.157,149.479,31.118,129.851,20.194z"/>
				<path fill="#0E9103" stroke="#000000" stroke-width="0.5" stroke-miterlimit="10" d="M100.928,107.991
					c0,0,37.756-90.023,28.157-87.778c12.624-3.135,62.677,34.013,46.334,49.094c-18.034,16.64-67.693,42.43-67.693,42.43
					L100.928,107.991z"/>
				<path fill="#0E9103" stroke="#000000" stroke-width="0.5" stroke-miterlimit="10" d="M100.928,107.991
					c3.148-7.172,6.19-14.391,9.131-21.652c2.947-7.258,5.771-14.565,8.536-21.895c2.7-7.357,5.354-14.733,7.697-22.212
					c1.16-3.745,2.271-7.508,3.185-11.324c0.438-1.91,0.835-3.836,1.075-5.785c0.112-0.977,0.198-1.96,0.13-2.945
					c-0.047-0.487-0.115-0.991-0.349-1.432c-0.209-0.471-0.775-0.688-1.248-0.534c0.481-0.136,1.019,0.095,1.204,0.558
					c0.213,0.435,0.265,0.932,0.293,1.414c0.038,0.973-0.08,1.946-0.225,2.912c-0.303,1.927-0.762,3.829-1.263,5.718
					c-0.988,3.78-2.164,7.516-3.391,11.228c-2.462,7.425-5.104,14.794-7.86,22.121c-2.701,7.347-5.534,14.645-8.358,21.948
					L100.928,107.991z"/>
			</g>
			<path fill="#0E9103" stroke="#000000" stroke-width="0.5" stroke-miterlimit="10" d="M98.256,97.795
				c1.81-0.671,4.61-7.953,4.729-5.733c0.311,5.926,2.321,15.434,7.469,18.269c6.14,3.388-1.095,2.401-5.083,4.253
				c-3.817,1.772-6.545,7.839-5.637,1.304c0.836-5.981-4.07-12.919-8.722-18.571C90.007,96.092,96.445,98.469,98.256,97.795z"/>
		</g>
	</g>
</g>
<g>
	<path d="M105.949,104.823c0,0,0.958-1.196,2.459-2.929c0.759-0.858,1.628-1.875,2.59-2.936c0.957-1.066,1.997-2.184,3.036-3.303
		c1.051-1.108,2.099-2.219,3.102-3.242c0.996-1.029,1.957-1.96,2.764-2.772c1.633-1.609,2.766-2.641,2.766-2.641
		s-0.957,1.196-2.458,2.929c-0.76,0.858-1.627,1.876-2.591,2.936c-0.956,1.066-1.998,2.183-3.037,3.303
		c-1.051,1.108-2.1,2.218-3.103,3.241c-0.997,1.028-1.957,1.96-2.764,2.773C107.081,103.791,105.949,104.823,105.949,104.823z"/>
</g>
<g>
	<path d="M51,105.991c0,0,0.178,0.048,0.511,0.138c0.336,0.074,0.815,0.262,1.454,0.337c0.638,0.087,1.39,0.256,2.284,0.333
		c0.892,0.083,1.889,0.223,2.988,0.307c1.098,0.089,2.283,0.212,3.544,0.284c1.259,0.083,2.587,0.169,3.961,0.26
		c2.748,0.182,5.681,0.34,8.617,0.471c5.871,0.296,11.742,0.593,16.145,0.815c4.405,0.246,7.341,0.409,7.341,0.409
		s-2.942,0.06-7.354,0.013c-2.205-0.039-4.78-0.053-7.536-0.15c-2.756-0.093-5.696-0.199-8.635-0.339
		c-2.937-0.165-5.874-0.357-8.625-0.571c-2.751-0.208-5.313-0.502-7.505-0.774c-1.098-0.113-2.096-0.314-2.982-0.45
		c-0.887-0.127-1.654-0.344-2.285-0.468c-0.639-0.108-1.095-0.342-1.425-0.438C51.173,106.053,51,105.991,51,105.991z"/>
</g>
<g>
	<path d="M71.333,116.848c0,0,0.104,0.039,0.306,0.072c0.203,0.024,0.501,0.033,0.883,0.015c0.764-0.031,1.847-0.181,3.144-0.361
		c1.298-0.179,2.805-0.447,4.421-0.72c1.616-0.274,3.336-0.589,5.054-0.921c1.721-0.312,3.439-0.639,5.047-0.962
		c1.608-0.324,3.108-0.626,4.394-0.885c1.282-0.277,2.355-0.492,3.095-0.687c0.371-0.094,0.659-0.179,0.852-0.249
		c0.194-0.065,0.288-0.125,0.288-0.125s-0.089,0.066-0.279,0.146c-0.188,0.083-0.472,0.188-0.836,0.309
		c-0.73,0.236-1.779,0.561-3.054,0.88c-1.275,0.319-2.763,0.693-4.37,1.036c-1.606,0.344-3.323,0.696-5.043,1.028
		c-1.725,0.311-3.452,0.604-5.076,0.858c-1.624,0.254-3.148,0.432-4.457,0.571c-1.309,0.138-2.409,0.178-3.177,0.167
		c-0.384-0.008-0.687-0.038-0.89-0.077C71.434,116.894,71.333,116.848,71.333,116.848z"/>
</g>
<g>
	<path d="M106.764,106.912c0,0,0.063-0.017,0.182-0.047c0.117-0.036,0.3-0.061,0.501-0.167c0.414-0.169,0.979-0.489,1.642-0.896
		c0.671-0.393,1.415-0.919,2.222-1.463c0.808-0.543,1.652-1.151,2.489-1.767c0.848-0.603,1.686-1.219,2.46-1.811
		c0.771-0.596,1.508-1.131,2.111-1.626c0.604-0.492,1.121-0.891,1.44-1.212c0.347-0.297,0.474-0.53,0.487-0.521
		c-0.014-0.014-0.104,0.25-0.416,0.588c-0.295,0.353-0.749,0.829-1.328,1.358c-1.146,1.076-2.776,2.389-4.461,3.628
		c-0.855,0.602-1.717,1.194-2.543,1.724c-0.825,0.532-1.624,0.984-2.323,1.346c-0.693,0.371-1.311,0.61-1.757,0.745
		c-0.216,0.088-0.398,0.079-0.519,0.1C106.829,106.905,106.764,106.912,106.764,106.912z"/>
</g>
<g>
	<path d="M104.649,102.587c0.018,0.001-0.024-0.252,0.088-0.679c0.095-0.435,0.271-1.033,0.529-1.739
		c0.266-0.701,0.573-1.52,0.957-2.373c0.383-0.854,0.803-1.759,1.238-2.656c0.901-1.78,1.858-3.531,2.662-4.796
		c0.789-1.275,1.423-2.051,1.422-2.051c0,0-0.122,0.217-0.334,0.598c-0.204,0.384-0.495,0.934-0.844,1.592
		c-0.339,0.664-0.734,1.438-1.158,2.267c-0.424,0.829-0.87,1.716-1.301,2.611c-0.454,0.883-0.892,1.774-1.292,2.615
		s-0.789,1.618-1.091,2.298c-0.296,0.68-0.564,1.246-0.694,1.653C104.669,102.331,104.664,102.593,104.649,102.587z"/>
</g>
<g>
	<path d="M69.167,97.402c0,0,0.103,0.057,0.295,0.164c0.184,0.125,0.498,0.215,0.872,0.371c0.759,0.294,1.878,0.644,3.206,1.09
		c2.671,0.858,6.233,2.003,9.795,3.148c1.775,0.591,3.551,1.182,5.215,1.736c1.665,0.554,3.206,1.113,4.529,1.583
		c1.323,0.47,2.41,0.911,3.169,1.219c0.759,0.312,1.179,0.519,1.179,0.519s-0.433-0.18-1.208-0.44
		c-0.773-0.268-1.894-0.603-3.229-1.031c-2.675-0.849-6.242-1.979-9.809-3.111c-1.774-0.594-3.549-1.188-5.213-1.746
		c-1.663-0.561-3.2-1.131-4.52-1.612c-1.318-0.489-2.397-0.941-3.149-1.279c-0.37-0.184-0.674-0.294-0.849-0.429
		C69.265,97.465,69.167,97.402,69.167,97.402z"/>
</g>
</svg>
