<?xml version="1.0" standalone="no"?>
<!DOCTYPE svg PUBLIC "-//W3C//DTD SVG 20010904//EN"
 "http://www.w3.org/TR/2001/REC-SVG-20010904/DTD/svg10.dtd">
<svg version="1.0" xmlns="http://www.w3.org/2000/svg"
 width="2000.000000pt" height="90.000000pt" viewBox="0 0 2000.000000 90.000000"
 preserveAspectRatio="xMidYMid meet">
<metadata>
Created by potrace 1.13, written by Peter Selinger 2001-2015
</metadata>
<g transform="translate(0.000000,90.000000) scale(0.100000,-0.100000)"
fill="#000000" stroke="none">
<path d="M2045 888 c-130 -11 -335 -18 -300 -10 19 5 -2 8 -60 8 -61 0 -77 -2
-50 -6 22 -4 -231 -8 -563 -8 -393 -1 -602 2 -602 8 0 6 -10 10 -22 9 -13 0
-17 -3 -10 -6 6 -2 12 -9 12 -15 0 -6 -57 -9 -163 -8 -225 3 -287 1 -287 -9 0
-5 404 -9 928 -10 510 -2 959 -6 997 -10 39 -5 60 -9 47 -10 -30 -1 -18 -21
13 -21 33 0 41 -28 10 -36 -14 -3 -25 -9 -25 -13 0 -4 -27 -5 -60 -3 -63 5
-77 -6 -37 -27 19 -9 15 -10 -26 -5 -35 4 -55 1 -72 -10 -14 -9 -40 -16 -60
-16 -22 0 -34 -4 -30 -10 4 -6 60 -10 136 -10 79 0 129 -4 129 -10 0 -5 7 -10
15 -10 8 0 14 -6 12 -12 -1 -9 21 -15 73 -19 41 -3 65 -6 53 -7 -30 -3 -53
-13 -53 -23 0 -5 37 -9 83 -10 145 -2 142 -17 -5 -18 -79 -1 -139 -5 -143 -11
-3 -5 -26 -10 -51 -10 -28 0 -43 4 -39 10 4 6 -6 10 -22 9 -25 0 -26 -1 -8 -9
14 -6 15 -9 5 -10 -24 -2 -321 -3 -845 -3 -839 0 -1025 -2 -1025 -15 0 -5 394
-9 876 -9 481 -1 903 -5 937 -9 61 -7 61 -7 32 -19 -25 -11 -26 -13 -10 -17
11 -2 58 -3 105 -1 84 2 84 2 45 -11 -33 -12 -35 -15 -15 -15 34 -2 56 -16 40
-26 -9 -6 -6 -12 11 -21 23 -13 23 -13 -16 -14 l-40 0 30 -20 30 -20 -30 0
c-18 0 -38 -8 -48 -20 -23 -27 -22 -27 16 -23 22 3 28 1 19 -5 -11 -7 -8 -11
12 -16 15 -4 24 -11 21 -15 -5 -9 55 -22 85 -19 35 3 83 -3 76 -9 -4 -4 -80
-11 -169 -16 -89 -5 -193 -10 -232 -12 -134 -7 -341 -10 -460 -6 -226 7 -1315
1 -1315 -8 0 -13 54 -21 139 -21 51 0 71 -3 61 -10 -20 -13 -10 -19 22 -13 15
3 25 9 22 14 -3 5 166 9 398 9 222 0 466 0 543 0 77 0 208 -1 290 -4 83 -2
188 -5 235 -6 84 -2 84 -2 45 -14 l-40 -12 77 -8 c43 -4 81 -5 87 -2 13 8 71
-4 71 -15 0 -5 -31 -9 -69 -9 -38 0 -76 -3 -85 -6 -14 -5 -14 -8 1 -22 17 -17
116 -25 106 -9 -2 4 10 7 26 7 17 0 31 -4 31 -9 0 -5 16 -12 35 -15 67 -13 25
-26 -63 -20 -74 6 -89 4 -101 -10 -12 -15 119 -16 1743 -16 1164 0 1756 3
1756 10 0 6 9 10 21 10 11 0 17 -4 14 -10 -4 -6 42 -10 132 -10 133 0 139 1
148 22 6 12 24 26 40 30 17 4 361 7 765 6 891 -2 850 -2 838 -9 -5 -4 -3 -9 6
-12 9 -4 13 -13 10 -22 -6 -13 297 -15 2981 -15 2140 0 2984 3 2979 11 -4 7
17 9 72 4 44 -3 1561 -8 3372 -11 l3292 -4 0 451 0 451 -2537 -6 c-1396 -4
-2562 -9 -2590 -12 -37 -4 -53 -2 -53 6 0 8 -19 10 -67 6 -38 -4 -104 -5 -148
-4 -44 2 -456 2 -915 2 -459 -1 -846 -1 -860 0 -14 0 -1087 1 -2385 1 -1801 0
-2366 -3 -2385 -12 -20 -9 70 -12 430 -14 250 -2 467 -2 482 -1 15 1 30 -3 34
-9 5 -8 -121 -11 -447 -10 -250 1 -470 -1 -489 -4 -32 -6 -38 -3 -59 24 l-24
31 -2926 -2 c-1609 -1 -2966 -5 -3016 -10z m3630 -48 l50 -18 -113 -1 c-121
-1 -162 -12 -141 -37 7 -9 31 -14 69 -14 36 0 60 -5 62 -12 3 -7 32 -11 83
-11 60 0 73 -3 54 -10 -23 -10 -23 -10 11 -18 19 -4 64 -6 100 -4 36 3 103 7
150 10 66 5 82 3 73 -6 -17 -17 -398 -26 -388 -9 9 14 -40 6 -93 -16 -22 -9
-40 -11 -51 -5 -19 11 -71 3 -71 -10 0 -5 -7 -9 -15 -9 -8 0 -15 -4 -15 -9 0
-9 -61 -41 -79 -41 -5 0 2 12 17 28 l27 27 -34 3 c-18 2 -38 -1 -44 -7 -6 -6
-20 -11 -31 -11 -20 0 -20 0 0 15 10 8 33 15 49 16 l30 1 -30 9 c-16 5 -51 7
-77 4 -53 -6 -60 3 -27 34 12 11 19 24 15 29 -5 8 28 52 40 52 3 0 12 -7 21
-16 14 -14 14 -17 -6 -35 -11 -11 -21 -26 -21 -34 0 -22 31 -18 37 4 2 10 15
24 28 31 13 7 25 22 27 34 3 19 12 22 92 29 49 4 97 12 105 17 22 13 38 11 96
-10z m2015 5 c36 -4 76 -13 90 -22 33 -21 60 -50 53 -56 -3 -3 -1 -12 3 -19
12 -19 14 -38 3 -38 -6 0 -7 -22 -3 -52 13 -110 12 -123 -17 -126 -22 -3 -27
2 -38 37 -6 23 -12 80 -12 127 l-1 86 -46 20 c-38 17 -57 19 -116 14 -119 -12
-456 -18 -456 -8 0 11 58 22 122 22 26 0 50 5 53 11 5 7 38 8 100 3 60 -4 99
-3 111 4 11 6 35 9 54 7 19 -2 64 -7 100 -10z m610 -26 c-11 -7 5 -9 55 -5
167 14 453 9 530 -8 39 -8 86 -17 105 -19 19 -2 -48 -3 -150 -3 -194 0 -291
-13 -175 -24 33 -3 61 -3 63 1 2 4 15 4 30 0 15 -4 69 -6 120 -3 65 3 97 1
105 -7 9 -10 -5 -11 -63 -7 -64 5 -69 4 -33 -5 43 -10 68 -39 33 -39 -10 0
-22 -5 -26 -11 -5 -8 -34 -10 -96 -5 -58 4 -87 2 -83 -4 9 -14 -15 -35 -48
-44 -15 -3 -27 -11 -27 -16 0 -6 -24 -9 -52 -9 -29 1 -43 4 -30 6 29 6 81 33
63 33 -11 0 -10 5 4 20 18 19 17 20 -6 22 -13 0 -1 4 26 7 40 5 21 8 -87 14
-164 10 -238 3 -269 -26 l-23 -21 30 -13 c16 -6 40 -12 54 -13 23 -1 23 -2 -8
-15 -18 -8 -48 -17 -67 -21 -30 -5 -34 -4 -29 10 5 13 -2 16 -45 16 -31 0 -51
4 -51 11 0 8 15 9 45 5 47 -8 54 -1 39 38 -9 23 -34 19 -34 -5 0 -20 -2 -20
-22 -7 -30 20 -42 64 -20 73 14 5 14 8 2 15 -10 6 -3 10 23 15 49 10 57 25 13
25 -19 0 -38 5 -42 11 -5 9 10 10 57 5 45 -5 59 -4 49 4 -12 7 -7 10 20 10 27
0 32 -3 20 -11z m4412 -62 c14 -22 8 -37 -17 -49 -36 -16 -31 -28 13 -28 40 0
64 14 56 34 -3 7 7 18 21 24 32 15 38 15 30 1 -4 -6 0 -16 8 -22 29 -24 27
-44 -9 -69 -34 -23 -43 -38 -24 -38 6 0 10 -8 8 -17 -2 -11 6 -19 22 -23 22
-5 19 -7 -19 -13 -24 -4 -56 -17 -71 -27 -16 -11 -31 -20 -34 -20 -9 0 14 54
27 62 7 5 0 8 -16 8 -16 0 -26 -4 -23 -9 3 -4 -1 -17 -9 -27 -13 -19 -14 -19
-51 1 -26 14 -32 21 -21 23 22 4 22 18 0 31 -15 8 -10 11 22 12 37 2 38 2 8 6
-34 4 -47 23 -16 23 12 0 14 3 6 11 -18 18 -3 54 28 68 33 14 37 35 12 51 -15
9 -12 10 12 5 16 -4 33 -12 37 -18z m1353 -37 c17 -9 30 -20 30 -25 0 -22 -82
-38 -200 -39 -209 0 -280 47 -115 78 56 10 255 0 285 -14z m1066 5 c9 -6 6
-11 -12 -18 -22 -9 -22 -10 -4 -14 47 -10 49 -15 10 -28 -40 -13 -185 -25
-217 -18 -13 3 -15 12 -11 39 5 28 3 34 -13 35 -18 0 -18 1 1 10 23 10 227 5
246 -6z m598 0 c22 -13 -44 -35 -105 -35 -30 0 -54 -4 -54 -10 0 -14 86 -13
126 2 17 6 40 8 50 4 18 -7 18 -8 1 -18 -28 -15 -252 -24 -261 -9 -4 6 -1 11
7 11 10 0 13 7 10 20 -13 48 0 53 110 48 57 -2 109 -8 116 -13z m-11532 -119
c38 -2 69 -10 78 -19 13 -14 13 -16 -2 -21 -10 -2 -70 -6 -133 -8 -88 -2 -114
0 -112 10 2 14 -24 16 -33 2 -3 -5 -17 -10 -31 -10 -13 0 -24 -4 -24 -10 0 -6
-29 -10 -67 -10 -36 0 -64 3 -60 6 6 6 151 43 205 51 17 3 32 9 32 13 0 4 19
6 43 4 23 -2 70 -5 104 -8z m4993 -97 l35 -1 -30 -8 c-29 -7 -29 -8 10 -9 l40
-1 -29 -15 c-15 -8 -35 -15 -42 -15 -8 0 -14 -4 -14 -10 0 -6 42 -11 103 -12
56 -1 85 -3 65 -5 -21 -2 -38 -8 -38 -14 0 -5 -26 -8 -57 -7 -32 2 -69 -1 -82
-6 -20 -7 -23 -6 -18 8 6 14 -4 16 -76 16 -46 0 -76 -4 -69 -8 7 -5 10 -16 6
-25 -5 -15 2 -17 52 -18 l59 -1 -50 -9 c-27 -5 -77 -7 -111 -4 -65 7 -114 -1
-114 -17 0 -7 18 -8 49 -4 43 6 49 4 47 -11 -1 -14 8 -19 37 -21 21 -2 37 1
37 7 0 6 10 11 23 12 21 1 21 1 -3 9 -24 8 -24 8 5 8 17 0 39 -3 50 -7 19 -8
19 -8 0 -19 -11 -6 -16 -12 -11 -12 5 0 3 -7 -4 -15 -10 -12 -41 -15 -149 -16
l-136 -2 149 -8 c82 -5 154 -10 160 -13 6 -2 -198 -5 -454 -5 -357 -1 -469 -4
-478 -13 -9 -9 -15 -10 -20 -2 -4 6 -27 14 -52 18 -31 4 -40 3 -30 -4 13 -8
13 -10 -1 -10 -9 0 -31 -3 -48 -6 -20 -4 -31 -3 -31 5 0 6 6 11 14 11 18 0 50
80 38 92 -6 6 -3 22 8 42 10 22 16 52 14 86 l-2 53 556 -7 c307 -3 573 -6 592
-7z m5595 -189 c17 -14 556 -8 630 7 29 6 93 7 155 3 103 -7 104 -7 35 -10
-57 -3 -45 -5 60 -10 l130 -6 -170 -1 c-98 -1 -159 2 -145 7 20 7 17 8 -20 8
-27 0 -37 -3 -25 -7 11 -3 -70 -8 -180 -11 -171 -5 -147 -6 163 -8 233 -1 362
-6 362 -12 0 -14 -695 -14 -722 1 -14 8 -23 8 -31 0 -6 -6 -29 -11 -51 -11
-47 0 -41 11 11 19 21 4 -29 7 -111 8 -92 1 -152 5 -159 12 -6 6 -27 11 -46
11 -20 0 -31 4 -24 8 17 11 122 5 138 -8z m890 -129 c34 -7 26 -9 -47 -10 -99
-1 -117 -16 -32 -27 63 -7 124 0 134 17 5 6 17 8 29 4 25 -8 18 -25 -10 -25
-25 0 -25 -16 1 -23 37 -9 21 -25 -37 -37 -74 -16 -219 -9 -258 12 l-30 16 28
11 c16 6 36 11 45 11 12 1 10 5 -8 15 -22 12 -23 14 -7 20 16 7 106 22 137 23
8 1 33 -3 55 -7z m-455 -8 c-19 -1 -60 -6 -90 -10 l-55 -7 57 -6 c61 -8 118
-27 118 -40 0 -5 -23 -13 -50 -19 -138 -30 -355 9 -279 50 37 19 158 37 249
36 47 0 69 -2 50 -4z"/>
</g>
</svg>
